HIERARCHY
ROOT Hips
{
	OFFSET -3.958830 18.904000 13.208200
	CHANNELS 6 Xposition Yposition Zposition Zrotation Yrotation Xrotation 
	JOINT LHipJoint
	{
		OFFSET 0.000000 0.000000 0.000000
		CHANNELS 3 Zrotation Yrotation Xrotation
		JOINT LeftUpLeg
		{
			OFFSET 1.800000 -1.400000 0.085000
			CHANNELS 3 Zrotation Yrotation Xrotation
			JOINT LeftLeg
			{
				OFFSET 2.215000 -6.000000 0.000000
				CHANNELS 3 Zrotation Yrotation Xrotation
				JOINT LeftFoot
				{
					OFFSET 2.500000 -6.900000 0.000000
					CHANNELS 3 Zrotation Yrotation Xrotation
					JOINT LeftToeBase
					{
						OFFSET 0.200000 -0.500000 1.950000
						CHANNELS 3 Zrotation Yrotation Xrotation
						End Site
						{
							OFFSET 0.000000 0.000000 0.000000
						}
					}
				}
			}
		}
	}
	JOINT RHipJoint
	{
		OFFSET 0.000000 0.000000 0.000000
		CHANNELS 3 Zrotation Yrotation Xrotation
		JOINT RightUpLeg
		{
			OFFSET -1.800000 -1.400000 0.085000
			CHANNELS 3 Zrotation Yrotation Xrotation
			JOINT RightLeg
			{
				OFFSET -2.215000 -6.000000 0.000000
				CHANNELS 3 Zrotation Yrotation Xrotation
				JOINT RightFoot
				{
					OFFSET -2.500000 -6.900000 0.000000
					CHANNELS 3 Zrotation Yrotation Xrotation
					JOINT RightToeBase
					{
						OFFSET -0.200000 -0.500000 1.950000
						CHANNELS 3 Zrotation Yrotation Xrotation
						End Site
						{
							OFFSET 0.000000 0.000000 0.000000
						}
					}
				}
			}
		}
	}
	JOINT LowerBack
	{
		OFFSET 0.000000 0.000000 0.000000
		CHANNELS 3 Zrotation Yrotation Xrotation
		JOINT Spine
		{
			OFFSET -0.087000 1.940000 -0.288900
			CHANNELS 3 Zrotation Yrotation Xrotation
			JOINT Spine1
			{
				OFFSET 0.000000 1.950000 0.060000
				CHANNELS 3 Zrotation Yrotation Xrotation
				JOINT Neck
				{
					OFFSET 0.000000 0.000000 0.000000
					CHANNELS 3 Zrotation Yrotation Xrotation
					JOINT Neck1
					{
						OFFSET 0.000000 1.600000 0.340000
						CHANNELS 3 Zrotation Yrotation Xrotation
						JOINT Head
						{
							OFFSET 0.000000 1.667000 -0.240000
							CHANNELS 3 Zrotation Yrotation Xrotation
							End Site
							{
								OFFSET 0.000000 0.000000 0.000000
							}
						}
					}
				}
				JOINT LeftShoulder
				{
					OFFSET 0.000000 0.000000 0.000000
					CHANNELS 3 Zrotation Yrotation Xrotation
					JOINT LeftArm
					{
						OFFSET 2.700000 1.550000 -0.730000
						CHANNELS 3 Zrotation Yrotation Xrotation
						JOINT LeftForeArm
						{
							OFFSET 5.450000 0.000000 0.000000
							CHANNELS 3 Zrotation Yrotation Xrotation
							JOINT LeftHand
							{
								OFFSET 3.450000 0.000000 0.000000
								CHANNELS 3 Zrotation Yrotation Xrotation
								JOINT LeftHandIndex1
								{
									OFFSET 0.750000 0.000000 0.000000
									CHANNELS 3 Zrotation Yrotation Xrotation
									End Site
									{
										OFFSET 0.000000 0.000000 0.000000
									}
								}
							}
						}
					}
				}
				JOINT RightShoulder
				{
					OFFSET 0.000000 0.000000 0.000000
					CHANNELS 3 Zrotation Yrotation Xrotation
					JOINT RightArm
					{
						OFFSET -2.700000 1.550000 -0.730000
						CHANNELS 3 Zrotation Yrotation Xrotation
						JOINT RightForeArm
						{
							OFFSET -5.450000 0.000000 0.000000
							CHANNELS 3 Zrotation Yrotation Xrotation
							JOINT RightHand
							{
								OFFSET -3.450000 0.000000 0.000000
								CHANNELS 3 Zrotation Yrotation Xrotation
								JOINT RightHandIndex1
								{
									OFFSET -0.750000 0.000000 0.000000
									CHANNELS 3 Zrotation Yrotation Xrotation
									End Site
									{
										OFFSET 0.000000 0.000000 0.000000
									}
								}
							}
						}
					}
				}
			}
		}
	}
}
MOTION
Frames: 13
Frame Time: 0.016667
0.147250 13.455800 -2.144860 -43.306159 -17.786214 28.345365 -15.933165 10.710325 7.240226 -38.684127 -19.855026 -55.537595 41.247786 -6.501319 52.494813 1.127676 10.170444 0.835210 1.312230 1.164190 1.168550 18.002270 -8.743617 2.159269 -18.528924 8.079576 -12.557225 20.873910 -14.690526 43.151500 -1.632543 -8.193383 1.368081 0.494630 -0.546300 0.244740 -2.452581 -2.865318 -9.336045 -14.025624 14.691680 48.933093 -4.711262 8.965059 27.342574 8.124421 -8.569807 -32.758130 -22.547122 7.416877 33.930530 0.089260 4.568370 -34.584540 -2.528623 -27.015906 -2.027427 2.967468 -21.082229 -4.439196 15.514105 5.709307 -1.344012 -3.958527 2.760354 0.814490 -0.506200 0.708440 0.285260 -8.079151 44.905509 39.255725 -68.902070 35.153738 179.180451 16.066641 5.097827 -0.361245 0.782160 -4.844752 0.221660 0.075520 -0.666310 -0.176830 
0.178420 13.449980 -2.077920 -43.704056 -14.854024 26.692016 -15.816781 10.804846 7.362272 -38.288817 -18.624787 -50.212793 38.391593 -5.439824 48.052380 0.925893 8.916548 1.243244 1.216520 1.059820 1.124390 18.067436 -9.250938 1.795483 -16.294865 5.465393 -10.071272 16.165032 -12.471021 40.105119 -1.409680 -7.202641 1.712284 0.391770 -0.533950 0.264790 -2.631403 -2.535953 -9.242984 -11.035647 11.188786 51.428175 -7.009106 7.668675 25.931238 8.578413 -7.837863 -31.966146 -22.166051 7.603309 34.956513 -1.553620 4.657730 -36.209610 -2.594903 -26.438818 -0.649449 1.294177 -20.144941 -4.486182 16.790318 4.615387 -1.378814 -3.890454 2.824885 0.818710 -0.508950 0.716600 0.247120 -9.911219 42.324216 38.724748 -71.319987 37.076611 -176.914550 18.426859 9.405861 -0.776321 1.572457 -4.786658 0.236830 0.075700 -0.607410 -0.166300 
0.252890 13.413890 -1.947750 -42.443599 -6.053698 23.875891 -15.630382 10.515462 7.749247 -34.720003 -19.449114 -42.491493 26.652941 -2.671661 47.142601 0.567599 7.208758 1.823819 1.095060 0.905230 1.087520 18.240595 -9.789929 1.417704 -15.262854 0.408618 -4.581989 13.040942 -10.440502 29.112236 -1.118956 -5.682408 2.260752 0.275140 -0.532170 0.289590 -3.086995 -1.912517 -9.323423 -4.663627 2.663506 55.286324 -11.046809 3.338898 24.829806 8.786852 -5.522986 -31.225492 -19.037754 7.791125 37.451021 -5.761190 5.336530 -37.749050 -3.921719 -27.533416 1.027133 1.408919 -18.059870 -5.013211 17.303384 3.118644 -1.444096 -3.844372 2.885553 0.835530 -0.494280 0.706050 0.185910 -11.199012 37.685711 38.654096 -74.171159 39.119098 -174.049180 23.015383 14.177558 -1.312870 2.807319 -4.726997 0.225440 0.054120 -0.530010 -0.189650 
0.256080 13.387890 -1.896120 -42.551281 0.468321 23.619022 -15.503033 10.199966 7.902371 -32.321732 -20.678222 -39.597042 21.644495 -1.856381 44.790826 0.357371 6.383253 2.126117 0.975890 0.743190 1.027340 18.399636 -9.923127 1.414817 -13.762817 -0.998924 -5.811097 12.885041 -10.419661 26.870793 -1.003774 -5.402097 2.373436 0.198610 -0.460620 0.328710 -3.495500 -1.376561 -9.525204 0.063609 -2.477708 54.354001 -12.752730 0.519733 23.238825 7.006228 -2.167109 -30.128436 -11.119308 7.801501 39.226422 -7.299820 7.958480 -35.900140 -5.012164 -28.654037 2.353405 1.947120 -17.624181 -3.247631 13.680825 4.436948 -1.029556 -3.942253 2.810038 0.816050 -0.398430 0.627310 0.143770 -9.037953 32.285645 37.687289 -78.622441 44.300999 -170.105931 26.010803 19.888791 -2.147141 4.293357 -4.380631 0.175420 0.002230 -0.453750 -0.229210 
0.225840 13.378530 -1.835940 -42.382494 3.088826 22.591725 -15.368550 10.546497 7.829098 -30.566279 -19.749428 -36.779992 16.678160 -0.288849 41.122583 0.136929 5.569700 2.446137 0.783350 0.465080 0.962390 18.402895 -10.095397 1.608285 -14.428493 -0.724417 -9.666441 12.652846 -10.999729 29.832561 -0.887811 -5.599860 2.299372 0.073790 -0.330920 0.334810 -3.709423 -1.604924 -10.094275 1.150399 -3.241312 56.600964 -13.531058 -1.104417 17.309197 5.358917 1.580395 -30.947986 -1.803767 7.258366 43.044145 -8.855680 10.710070 -31.651880 -5.858666 -27.513649 4.278092 -1.465609 -16.838048 -3.098855 15.332755 0.223282 -1.203500 -3.797769 3.165004 0.802530 -0.282710 0.505820 0.083020 -7.418912 26.254136 32.818935 -87.511416 54.832810 -168.459903 20.587058 28.767318 -3.615875 7.183433 -2.883089 0.064360 0.002710 -0.343710 -0.283750 
0.167760 13.365200 -1.749530 -44.848468 2.603212 21.072070 -15.235424 10.521043 6.828115 -27.600298 -15.714998 -34.656022 13.720633 0.871919 36.383205 -0.077960 4.654245 2.801309 0.756070 0.468650 0.924820 18.398606 -10.823252 1.991495 -12.819863 0.873592 -15.256894 11.057070 -10.543555 33.666648 -0.857971 -5.765318 2.240294 0.104500 -0.247350 0.299150 -3.809801 0.460440 -9.502758 7.388868 1.483607 50.973161 -12.268700 5.045750 10.179216 6.914323 1.403974 -17.850549 3.175250 6.324607 43.164243 -7.622290 11.474420 -29.232370 -12.046139 -41.591228 16.714765 -5.650756 -11.512132 -1.641998 13.637304 -0.273478 -0.989964 -3.558849 3.137668 0.739730 -0.224770 0.453740 0.105670 -0.945853 45.666327 -5.291511 18.739770 51.791500 -2.513968 -8.147708 41.410770 -2.253316 3.476337 -0.468955 0.026970 0.062340 -0.338850 -0.259110 
0.090730 13.309640 -1.611680 -44.834577 3.497553 19.800268 -15.263611 10.612193 6.375991 -27.114531 -14.324795 -31.514494 12.130567 1.211938 33.345917 -0.252018 4.235665 2.973755 0.805460 0.511220 0.950240 18.369413 -10.585086 2.246398 -15.418399 0.818244 -16.923523 15.824765 -10.528735 27.316062 -0.742203 -5.463972 2.318792 0.194090 -0.198220 0.297390 -3.741012 0.286772 -9.178247 5.544436 2.622524 44.859112 -10.892616 5.701973 14.331890 7.267871 3.239897 -15.267664 7.090466 6.593757 40.020515 -6.662150 12.094290 -26.703510 -11.512390 -41.460234 17.863296 -6.126912 -11.102410 -0.266986 11.547011 1.261937 -0.826746 -3.626348 3.030365 0.707830 -0.154410 0.395140 0.126760 -2.142380 44.942205 -7.292755 18.038969 50.374908 -1.627031 -9.160501 48.073351 -3.506600 2.671237 -0.877837 -0.019570 0.075750 -0.353170 -0.285090 
0.039610 13.269160 -1.521110 -47.023759 3.334373 18.458281 -15.263442 10.582647 5.874212 -23.692672 -13.549416 -32.675233 10.124963 2.066470 36.242889 -0.234694 4.746146 2.805921 0.843540 0.571380 0.939430 18.402908 -10.250187 2.774355 -16.337412 3.393307 -20.752664 20.515566 -14.051565 34.902121 -1.062204 -7.098152 1.763770 0.270390 -0.127470 0.299790 -3.765321 0.329342 -9.100545 6.144167 2.652154 41.552039 -10.821837 5.716281 14.458309 8.155573 2.935734 -12.447956 7.024837 6.923407 38.187327 -6.610240 11.592160 -25.486100 -12.129007 -39.055677 17.460132 -7.232961 -11.879045 0.895707 9.341373 1.944845 -0.712688 -3.636515 2.987227 0.664560 -0.092680 0.359900 0.173650 -3.113391 43.387822 -8.940094 18.399120 50.734383 1.274333 -10.906463 54.039366 -4.976857 2.371755 -1.060772 -0.043350 0.130400 -0.363500 -0.265360 
-0.037010 13.188380 -1.429490 -48.883083 4.815674 18.436725 -15.320448 9.941427 5.897066 -23.082074 -14.988619 -36.056979 13.521720 0.958181 42.621508 -0.068828 5.959682 2.361484 0.883860 0.643280 0.937260 18.506712 -9.516254 3.374631 -19.170575 4.933068 -24.980732 29.128399 -18.208058 36.437790 -1.376785 -8.515674 1.290176 0.368610 -0.058690 0.319430 -3.816636 0.477267 -9.368094 7.522928 1.887988 36.992131 -10.783736 4.794782 13.990316 9.346134 3.157915 -9.821217 7.858755 8.144388 35.794019 -7.019920 12.468110 -22.780730 -13.592779 -36.078065 16.479916 -8.798662 -13.348961 1.858538 8.484567 3.016226 -0.660504 -3.724066 3.057363 0.564450 0.013230 0.289950 0.189550 -3.654419 40.104863 -10.384937 19.600431 52.744732 6.915188 -17.361797 57.585341 -8.261113 2.167402 -1.085757 -0.052580 0.132410 -0.360190 -0.259630 
-0.127480 13.136320 -1.347260 -50.544803 1.819354 17.352577 -15.474206 9.798238 5.683773 -21.859257 -14.884968 -39.126526 14.671432 1.232082 47.652260 0.049649 7.079454 1.995888 0.868690 0.629220 0.853160 18.468538 -8.876493 3.858214 -21.240501 7.157431 -30.197684 32.100414 -20.954766 41.026767 -1.600976 -9.651213 0.969902 0.419850 0.097540 0.328180 -3.519049 0.101512 -9.388198 4.975230 3.799357 34.082489 -8.986521 6.130484 13.595001 9.565426 2.355031 -8.394834 6.640335 9.229436 34.095076 -3.987830 11.882880 -19.676680 -13.024566 -33.229496 15.632286 -11.825379 -14.430516 3.120195 8.162882 4.131471 -0.639409 -3.858022 3.047926 0.516910 0.112910 0.192400 0.231100 -4.682041 38.868128 -10.775325 14.879618 53.970328 7.162938 -28.480291 59.901687 -14.748606 2.133043 -1.182829 -0.109790 0.203190 -0.307980 -0.232670 
-0.201590 13.095710 -1.337790 -53.335442 -2.836834 17.416840 -15.577913 9.558132 5.496344 -18.063206 -14.790845 -46.240663 14.460631 3.059859 57.171344 0.330234 9.110591 1.309010 0.832060 0.583120 0.765470 18.501018 -8.255737 4.411316 -21.198521 10.625078 -38.156762 31.614367 -22.357052 47.049200 -1.744253 -10.547212 0.738151 0.449370 0.220450 0.325900 -3.434223 0.039455 -9.476978 4.329985 5.377115 31.538047 -8.107339 7.738603 12.720094 9.593918 0.583450 -8.053820 3.600226 10.495779 32.433847 -2.058060 11.363710 -16.026840 -11.295982 -29.807149 14.297723 -15.325192 -15.232438 4.451126 7.222555 3.616906 -0.628182 -3.991015 3.046370 0.456550 0.202670 0.075800 0.239190 -6.790893 36.918767 -9.955151 4.764535 56.689802 2.623788 -37.173860 60.905610 -19.558141 2.149901 -1.387676 -0.159780 0.230150 -0.242600 -0.220830 
-0.264190 13.037280 -1.276610 -56.827471 -6.151096 16.494222 -15.525789 9.362503 5.176155 -13.836500 -13.223331 -51.558108 16.257036 4.319768 67.246658 0.789568 11.261232 0.689452 0.768200 0.540950 0.690700 18.629733 -7.912341 4.988985 -20.828527 14.300782 -44.018823 33.415950 -24.105078 50.682107 -1.938755 -11.346662 0.585101 0.446560 0.341450 0.303270 -3.732992 0.450767 -9.641316 7.311373 5.326359 30.244684 -9.384185 8.491275 12.675137 10.016391 0.050374 -8.573953 2.795174 11.367205 31.515316 -1.827070 11.890560 -11.817470 -11.732140 -27.097591 13.033838 -15.549127 -14.473027 4.580024 5.708411 1.750233 -0.636605 -4.065907 3.014465 0.353270 0.296550 -0.008430 0.277010 -7.473186 34.352385 -7.882860 -5.733899 58.355045 -4.468244 -47.220906 59.145024 -24.314241 2.177300 -1.450757 -0.192130 0.270130 -0.232560 -0.178200 
-0.334440 12.890410 -1.156470 -61.269631 -8.093520 17.256576 -15.303446 8.592439 5.120123 -10.995668 -12.821871 -57.467945 22.382654 1.644568 76.893988 1.221931 13.221886 0.135978 0.765460 0.546130 0.605040 18.979337 -7.594449 5.628234 -23.437051 16.696338 -50.751126 42.137862 -28.207947 49.427245 -2.225028 -12.191585 0.383572 0.470590 0.453500 0.366490 -4.639827 1.675393 -10.002540 15.195577 3.641370 26.322521 -12.692666 8.357081 12.398137 10.461139 -1.396729 -8.364313 0.633468 12.044826 31.491578 -0.137550 10.639700 -8.718780 -10.768281 -23.200200 11.309925 -19.113293 -14.984463 5.383457 4.867900 -0.107847 -0.726846 -4.180956 3.065243 0.265840 0.382830 -0.077790 0.307930 -9.590266 29.844433 -6.676370 -12.147912 61.280098 -8.269840 -54.455232 55.462111 -26.999541 2.150147 -1.536642 -0.165930 0.258270 -0.186000 -0.121940 
